<svg xmlns="http://www.w3.org/2000/svg" viewBox="0 0 1083 246">
  <title>kiss_chat</title>
  <desc>kiss_chat logo lockup: kissing-bubbles mark and wordmark with a green underscore.</desc>
  <defs><clipPath id="lk1"><circle cx="195" cy="241" r="138"/></clipPath></defs>
  <g transform="translate(-6.8 -15.8) scale(0.5762)">
    <path d="M 123 353 L 67 440 L 169 374 Z" fill="#3DF08C"/>
    <circle cx="195" cy="241" r="138" fill="#3DF08C"/>
    <path d="M 389 353 L 445 440 L 343 374 Z" fill="#2FD4B4"/>
    <circle cx="317" cy="241" r="138" fill="#2FD4B4"/>
    <circle cx="317" cy="241" r="138" fill="#D9FBEA" clip-path="url(#lk1)"/>
    <line x1="223" y1="207" x2="289" y2="274" stroke="#0D1117" stroke-width="31" stroke-linecap="round"/>
    <line x1="289" y1="207" x2="223" y2="274" stroke="#0D1117" stroke-width="31" stroke-linecap="round"/>
  </g>
  <g transform="translate(301.3 174.2)">
    <path transform="translate(0.00 0) scale(0.140000 -0.140000)" d="M93 0V730H192V326H293L441 550H553L380 287L562 0H448L294 241H192V0Z" fill="#E6EDF3"/>
    <path transform="translate(84.00 0) scale(0.140000 -0.140000)" d="M83 0V90H276V460H103V550H375V90H556V0ZM316 647Q282 647 262.0 664.5Q242 682 242 712Q242 743 262.0 761.0Q282 779 316 779Q350 779 370.0 761.0Q390 743 390 712Q390 682 370.0 664.5Q350 647 316 647Z" fill="#E6EDF3"/>
    <path transform="translate(168.00 0) scale(0.140000 -0.140000)" d="M278 -8Q184 -8 132.0 34.0Q80 76 80 152H178Q178 116 204.5 95.5Q231 75 278 75H322Q371 75 397.5 96.0Q424 117 424 155Q424 222 358 230L210 251Q151 260 119.0 299.5Q87 339 87 402Q87 476 137.0 517.0Q187 558 277 558H321Q405 558 457.0 518.0Q509 478 512 412H412Q410 440 386.0 458.5Q362 477 321 477H277Q232 477 207.5 457.0Q183 437 183 403Q183 348 238 341L377 321Q520 302 520 155Q520 77 468.5 34.5Q417 -8 322 -8Z" fill="#E6EDF3"/>
    <path transform="translate(252.00 0) scale(0.140000 -0.140000)" d="M278 -8Q184 -8 132.0 34.0Q80 76 80 152H178Q178 116 204.5 95.5Q231 75 278 75H322Q371 75 397.5 96.0Q424 117 424 155Q424 222 358 230L210 251Q151 260 119.0 299.5Q87 339 87 402Q87 476 137.0 517.0Q187 558 277 558H321Q405 558 457.0 518.0Q509 478 512 412H412Q410 440 386.0 458.5Q362 477 321 477H277Q232 477 207.5 457.0Q183 437 183 403Q183 348 238 341L377 321Q520 302 520 155Q520 77 468.5 34.5Q417 -8 322 -8Z" fill="#E6EDF3"/>
    <path transform="translate(336.00 0) scale(0.140000 -0.140000)" d="M60 -110V-25H540V-110Z" fill="#3DF08C"/>
    <path transform="translate(420.00 0) scale(0.140000 -0.140000)" d="M308 -10Q207 -10 146.0 46.5Q85 103 85 202V349Q85 447 146.0 503.5Q207 560 308 560Q405 560 464.5 508.5Q524 457 527 368H429Q426 418 393.5 445.5Q361 473 308 473Q251 473 217.5 440.5Q184 408 184 349V202Q184 142 217.5 110.0Q251 78 308 78Q362 78 394.0 105.0Q426 132 429 182H527Q524 93 464.5 41.5Q405 -10 308 -10Z" fill="#E6EDF3"/>
    <path transform="translate(504.00 0) scale(0.140000 -0.140000)" d="M88 0V730H187V550L186 445H187Q194 499 232.5 529.5Q271 560 334 560Q416 560 465.0 508.0Q514 456 514 368V0H415V353Q415 412 385.0 444.0Q355 476 303 476Q249 476 218.0 442.5Q187 409 187 349V0Z" fill="#E6EDF3"/>
    <path transform="translate(588.00 0) scale(0.140000 -0.140000)" d="M249 -10Q164 -10 114.5 37.5Q65 85 65 162Q65 239 116.5 286.0Q168 333 252 333H413V375Q413 476 301 476Q251 476 220.5 457.5Q190 439 188 406H90Q95 473 151.0 516.5Q207 560 301 560Q402 560 457.0 512.0Q512 464 512 377V0H415V101H413Q406 50 362.5 20.0Q319 -10 249 -10ZM275 73Q338 73 375.5 103.5Q413 134 413 187V260H261Q218 260 191.5 234.5Q165 209 165 167Q165 124 194.0 98.5Q223 73 275 73Z" fill="#E6EDF3"/>
    <path transform="translate(672.00 0) scale(0.140000 -0.140000)" d="M355 0Q284 0 242.5 41.0Q201 82 201 150V460H44V550H201V705H300V550H523V460H300V151Q300 124 315.5 107.0Q331 90 357 90H518V0Z" fill="#E6EDF3"/>
  </g>
</svg>
